<svg xmlns="http://www.w3.org/2000/svg" width="850" height="1180" viewBox="0 0 850 1180" role="img" aria-label="课程页下载面板示意图">
  <rect width="850" height="1180" fill="#f3f6fb"/>
  <rect x="640" y="6" width="205" height="47" rx="10" fill="#eaf4ff" stroke="#8fc7ff"/>
  <text x="656" y="37" font-family="Arial, sans-serif" font-size="22" font-weight="700" fill="#0872f5">已打开课件下载面板</text>
  <rect x="5" y="66" width="840" height="1080" rx="10" fill="#fff" stroke="#cfd9e8"/>
  <rect x="5" y="66" width="840" height="60" rx="10" fill="#f7fbff"/>
  <text x="24" y="103" font-family="Arial, sans-serif" font-size="20" font-weight="700" fill="#111d34">Chaoxing PDF Dumper</text>
  <text x="790" y="102" font-family="Arial, sans-serif" font-size="16" fill="#50627d">就绪</text>
  <rect x="24" y="141" width="110" height="44" rx="8" fill="#0b7cff"/>
  <text x="39" y="170" font-family="Arial, sans-serif" font-size="18" fill="#fff">重新扫描</text>
  <rect x="146" y="141" width="148" height="44" rx="8" fill="#0b7cff"/>
  <text x="164" y="170" font-family="Arial, sans-serif" font-size="18" fill="#fff">下载勾选 (26)</text>
  <rect x="306" y="141" width="123" height="44" rx="8" fill="#fff" stroke="#b8cce8"/>
  <text x="323" y="170" font-family="Arial, sans-serif" font-size="18" fill="#18304f">复制 JSON</text>
  <text x="24" y="230" font-family="Arial, sans-serif" font-size="20" fill="#4b607d">courseid=102261532，clazzid=139661784，章节 29/29，已选 25 章 / 26 个 PDF，共 26 个 PDF</text>
  <rect x="24" y="273" width="804" height="62" rx="10" fill="#e9fff1" stroke="#0ec95b"/>
  <rect x="40" y="288" width="33" height="33" rx="8" fill="#12aee8"/>
  <path d="M48 303l7 8 14-17" fill="none" stroke="#fff" stroke-width="5" stroke-linecap="round" stroke-linejoin="round"/>
  <text x="88" y="313" font-family="Arial, sans-serif" font-size="21" font-weight="700" fill="#006b2f">已全选章节</text>
  <text x="744" y="312" font-family="Arial, sans-serif" font-size="17" fill="#526d91">25/25 章</text>
  <g font-family="Arial, sans-serif">
    <rect x="24" y="366" width="792" height="137" rx="10" fill="#fff" stroke="#22d66c"/>
    <rect x="24" y="366" width="792" height="58" rx="10" fill="#e4faec"/>
    <rect x="40" y="378" width="33" height="33" rx="8" fill="#0fd456"/>
    <path d="M48 394l7 7 14-16" fill="none" stroke="#fff" stroke-width="5" stroke-linecap="round" stroke-linejoin="round"/>
    <rect x="88" y="378" width="86" height="33" rx="16" fill="#c8ffd9"/>
    <text x="114" y="401" font-size="18" font-weight="700" fill="#006b2f">已选</text>
    <text x="190" y="402" font-size="18" font-weight="700" fill="#006b2f">01_Introduction</text>
    <text x="729" y="402" font-size="20" fill="#354a64">1 个 PDF</text>
    <rect x="40" y="452" width="21" height="21" rx="5" fill="#12aee8"/>
    <path d="M45 462l5 6 10-13" fill="none" stroke="#fff" stroke-width="3" stroke-linecap="round" stroke-linejoin="round"/>
    <text x="73" y="458" font-size="19" fill="#263449">01_Introduction.pdf</text>
    <text x="73" y="484" font-size="17" fill="#55719a">4c2f3eccefd74bc47c4edfa614294cae</text>
    <rect x="598" y="440" width="122" height="44" rx="8" fill="#fff" stroke="#b8cce8"/>
    <text x="613" y="469" font-size="18" fill="#18304f">复制 JSON</text>
    <rect x="729" y="440" width="72" height="44" rx="8" fill="#fff" stroke="#b8cce8"/>
    <text x="746" y="469" font-size="18" fill="#18304f">下载</text>
  </g>
  <g font-family="Arial, sans-serif">
    <rect x="24" y="520" width="792" height="137" rx="10" fill="#fff" stroke="#22d66c"/>
    <rect x="24" y="520" width="792" height="58" rx="10" fill="#e4faec"/>
    <rect x="40" y="532" width="33" height="33" rx="8" fill="#0fd456"/>
    <path d="M48 548l7 7 14-16" fill="none" stroke="#fff" stroke-width="5" stroke-linecap="round" stroke-linejoin="round"/>
    <rect x="88" y="532" width="86" height="33" rx="16" fill="#c8ffd9"/>
    <text x="114" y="555" font-size="18" font-weight="700" fill="#006b2f">已选</text>
    <text x="190" y="556" font-size="18" font-weight="700" fill="#006b2f">02-1_Background of Lightwave</text>
    <text x="729" y="556" font-size="20" fill="#354a64">1 个 PDF</text>
    <rect x="40" y="606" width="21" height="21" rx="5" fill="#12aee8"/>
    <path d="M45 616l5 6 10-13" fill="none" stroke="#fff" stroke-width="3" stroke-linecap="round" stroke-linejoin="round"/>
    <text x="73" y="612" font-size="19" fill="#263449">02-1_Background of Lightwave.pdf</text>
    <text x="73" y="638" font-size="17" fill="#55719a">3d5dc634bf2f0b4527d75244b7558ca8</text>
    <rect x="598" y="594" width="122" height="44" rx="8" fill="#fff" stroke="#b8cce8"/>
    <text x="613" y="623" font-size="18" fill="#18304f">复制 JSON</text>
    <rect x="729" y="594" width="72" height="44" rx="8" fill="#fff" stroke="#b8cce8"/>
    <text x="746" y="623" font-size="18" fill="#18304f">下载</text>
  </g>
  <g font-family="Arial, sans-serif">
    <rect x="24" y="674" width="792" height="137" rx="10" fill="#fff" stroke="#22d66c"/>
    <rect x="24" y="674" width="792" height="58" rx="10" fill="#e4faec"/>
    <rect x="40" y="686" width="33" height="33" rx="8" fill="#0fd456"/>
    <path d="M48 702l7 7 14-16" fill="none" stroke="#fff" stroke-width="5" stroke-linecap="round" stroke-linejoin="round"/>
    <rect x="88" y="686" width="86" height="33" rx="16" fill="#c8ffd9"/>
    <text x="114" y="709" font-size="18" font-weight="700" fill="#006b2f">已选</text>
    <text x="190" y="710" font-size="18" font-weight="700" fill="#006b2f">02-2_Energy levels and thermal equilibrium</text>
    <text x="729" y="710" font-size="20" fill="#354a64">1 个 PDF</text>
    <rect x="40" y="760" width="21" height="21" rx="5" fill="#12aee8"/>
    <path d="M45 770l5 6 10-13" fill="none" stroke="#fff" stroke-width="3" stroke-linecap="round" stroke-linejoin="round"/>
    <text x="73" y="766" font-size="19" fill="#263449">02-2_Energy levels and thermal equilibrium.pdf</text>
    <text x="73" y="792" font-size="17" fill="#55719a">7164a2d7964e1e45db0a07b3c8df25b5</text>
    <rect x="598" y="748" width="122" height="44" rx="8" fill="#fff" stroke="#b8cce8"/>
    <text x="613" y="777" font-size="18" fill="#18304f">复制 JSON</text>
    <rect x="729" y="748" width="72" height="44" rx="8" fill="#fff" stroke="#b8cce8"/>
    <text x="746" y="777" font-size="18" fill="#18304f">下载</text>
  </g>
  <rect x="5" y="1017" width="840" height="130" fill="#fff" stroke="#e3e8f1"/>
  <text x="24" y="1050" font-family="Arial, sans-serif" font-size="18" fill="#37506f">[18:14:10] 批量下载已取消，已提交 4/26 个任务 | [18:14:09] 下载 4/26：03_Optical transition and thermal light.pdf</text>
  <rect x="690" y="1162" width="156" height="58" rx="29" fill="#0b7cff"/>
  <text x="748" y="1199" font-family="Arial, sans-serif" font-size="23" font-weight="700" fill="#fff">收起</text>
</svg>
